{
  "source": "C:\\Users\\Peter\\Desktop\\stuff\\MIUN\\quantitative_research\\video_compression\\videos\\BVI-HD\\BVI-HD_CDVL_videos\\ORIG\\Hamster_1920x1080_60fps.mp4",
  "output": "C:\\Users\\Peter\\Desktop\\stuff\\MIUN\\quantitative_research\\video_compression\\compressed_videos\\BVI-HD\\vp9\\1\\Hamster_1920x1080_60fps_vp9.webm",
  "codec": "vp9",
  "ok": "Input #0, mov,mp4,m4a,3gp,3g2,mj2, from 'C:\\Users\\Peter\\Desktop\\stuff\\MIUN\\quantitative_research\\video_compression\\videos\\BVI-HD\\BVI-HD_CDVL_videos\\ORIG\\Hamster_1920x1080_60fps.mp4':\n  Metadata:\n    major_brand     : isom\n    minor_version   : 512\n    compatible_brands: isomiso2avc1mp41\n    encoder         : Lavf54.28.101\n  Duration: 00:00:05.00, start: 0.000000, bitrate: 208485 kb/s\n  Stream #0:0[0x1](und): Video: h264 (High 4:4:4 Predictive) (avc1 / 0x31637661), yuv420p(progressive), 1920x1080, 208481 kb/s, 60 fps, 60 tbr, 60 tbn (default)\n    Metadata:\n      handler_name    : VideoHandler\n      vendor_id       : [0][0][0][0]\n[out#0/webm @ 000002857f959880] Codec AVOption b:a (set bitrate (in bits/s)) has not been used for any stream. The most likely reason is either wrong type (e.g. a video option with no video streams) or that it is a private option of some decoder which was not actually used for any stream.\nStream mapping:\n  Stream #0:0 -> #0:0 (h264 (native) -> vp9 (libvpx-vp9))\nPress [q] to stop, [?] for help\n[libvpx-vp9 @ 000002857f96cbc0] v1.15.2-100-g40561f514\nOutput #0, webm, to 'C:\\Users\\Peter\\Desktop\\stuff\\MIUN\\quantitative_research\\video_compression\\compressed_videos\\BVI-HD\\vp9\\1\\Hamster_1920x1080_60fps_vp9.webm':\n  Metadata:\n    major_brand     : isom\n    minor_version   : 512\n    compatible_brands: isomiso2avc1mp41\n    encoder         : Lavf62.3.100\n  Stream #0:0(und): Video: vp9, yuv420p(tv, progressive), 1920x1080, q=2-31, 1000 kb/s, 60 fps, 1k tbn (default)\n    Metadata:\n      encoder         : Lavc62.11.100 libvpx-vp9\n      handler_name    : VideoHandler\n      vendor_id       : [0][0][0][0]\n    Side data:\n      cpb: bitrate max/min/avg: 0/0/0 buffer size: 1000000 vbv_delay: N/A\nframe=    0 fps=0.0 q=0.0 size=       0KiB time=N/A bitrate=N/A speed=N/A elapsed=0:00:00.56    \nframe=    0 fps=0.0 q=0.0 size=       0KiB time=N/A bitrate=N/A speed=N/A elapsed=0:00:01.22    \nframe=    0 fps=0.0 q=0.0 size=       0KiB time=N/A bitrate=N/A speed=N/A elapsed=0:00:01.88    \nframe=    2 fps=0.8 q=63.0 size=       1KiB time=00:00:00.01 bitrate= 303.8kbits/s speed=0.00638x elapsed=0:00:02.61    \nframe=    4 fps=1.2 q=63.0 size=       1KiB time=00:00:00.06 bitrate=  76.0kbits/s speed=0.0204x elapsed=0:00:03.26    \nframe=    6 fps=1.6 q=57.0 size=       1KiB time=00:00:00.10 bitrate=  50.6kbits/s speed=0.0264x elapsed=0:00:03.78    \nframe=    8 fps=1.9 q=56.0 size=       1KiB time=00:00:00.13 bitrate=  38.0kbits/s speed=0.031x elapsed=0:00:04.30    \nframe=   11 fps=2.3 q=60.0 size=       1KiB time=00:00:00.18 bitrate=  27.6kbits/s speed=0.0381x elapsed=0:00:04.81    \nframe=   12 fps=2.3 q=61.0 size=       1KiB time=00:00:00.20 bitrate=  25.3kbits/s speed=0.0375x elapsed=0:00:05.32    \nframe=   14 fps=2.4 q=60.0 size=       1KiB time=00:00:00.23 bitrate=  21.7kbits/s speed=0.0399x elapsed=0:00:05.84    \nframe=   15 fps=2.4 q=60.0 size=       1KiB time=00:00:00.25 bitrate=  20.3kbits/s speed=0.0393x elapsed=0:00:06.35    \nframe=   17 fps=2.5 q=59.0 size=       1KiB time=00:00:00.28 bitrate=  17.9kbits/s speed=0.0412x elapsed=0:00:06.86    \nframe=   19 fps=2.6 q=59.0 size=       1KiB time=00:00:00.31 bitrate=  16.0kbits/s speed=0.0428x elapsed=0:00:07.39    \nframe=   21 fps=2.7 q=59.0 size=       1KiB time=00:00:00.35 bitrate=  14.5kbits/s speed=0.0443x elapsed=0:00:07.90    \nframe=   22 fps=2.6 q=59.0 size=       1KiB time=00:00:00.36 bitrate=  13.8kbits/s speed=0.0435x elapsed=0:00:08.42    \nframe=   24 fps=2.7 q=59.0 size=       1KiB time=00:00:00.40 bitrate=  12.7kbits/s speed=0.0448x elapsed=0:00:08.93    \nframe=   25 fps=2.6 q=47.0 size=       1KiB time=00:00:00.41 bitrate=  12.2kbits/s speed=0.0441x elapsed=0:00:09.45    \nframe=   27 fps=2.7 q=59.0 size=       1KiB time=00:00:00.45 bitrate=  11.3kbits/s speed=0.0452x elapsed=0:00:09.96    \nframe=   29 fps=2.8 q=60.0 size=       1KiB time=00:00:00.48 bitrate=  10.5kbits/s speed=0.0461x elapsed=0:00:10.47    \nframe=   31 fps=2.8 q=61.0 size=       1KiB time=00:00:00.51 bitrate=   9.8kbits/s speed=0.047x elapsed=0:00:10.99    \nframe=   33 fps=2.9 q=61.0 size=       1KiB time=00:00:00.55 bitrate=   9.2kbits/s speed=0.0478x elapsed=0:00:11.50    \nframe=   34 fps=2.8 q=61.0 size=       1KiB time=00:00:00.56 bitrate=   8.9kbits/s speed=0.0471x elapsed=0:00:12.03    \nframe=   36 fps=2.9 q=60.0 size=       1KiB time=00:00:00.60 bitrate=   8.4kbits/s speed=0.0478x elapsed=0:00:12.55    \nframe=   37 fps=2.8 q=42.0 size=       1KiB time=00:00:00.61 bitrate=   8.2kbits/s speed=0.0472x elapsed=0:00:13.05    \nframe=   40 fps=2.9 q=59.0 size=       1KiB time=00:00:00.66 bitrate=   7.6kbits/s speed=0.0491x elapsed=0:00:13.58    \nframe=   42 fps=3.0 q=59.0 size=       1KiB time=00:00:00.70 bitrate=   7.2kbits/s speed=0.0497x elapsed=0:00:14.09    \nframe=   46 fps=3.1 q=59.0 size=       1KiB time=00:00:00.76 bitrate=   6.6kbits/s speed=0.0525x elapsed=0:00:14.60    \nframe=   48 fps=3.2 q=59.0 size=       1KiB time=00:00:00.80 bitrate=   6.3kbits/s speed=0.0529x elapsed=0:00:15.11    \nframe=   50 fps=3.2 q=59.0 size=       1KiB time=00:00:00.83 bitrate=   6.1kbits/s speed=0.0533x elapsed=0:00:15.63    \nframe=   53 fps=3.3 q=58.0 size=       1KiB time=00:00:00.88 bitrate=   5.7kbits/s speed=0.0547x elapsed=0:00:16.15    \nframe=   56 fps=3.4 q=58.0 size=       1KiB time=00:00:00.93 bitrate=   5.4kbits/s speed=0.056x elapsed=0:00:16.68    \nframe=   58 fps=3.4 q=58.0 size=       1KiB time=00:00:00.96 bitrate=   5.2kbits/s speed=0.0562x elapsed=0:00:17.19    \nframe=   60 fps=3.4 q=57.0 size=       1KiB time=00:00:01.00 bitrate=   5.1kbits/s speed=0.0565x elapsed=0:00:17.71    \nframe=   61 fps=3.3 q=40.0 size=       1KiB time=00:00:01.01 bitrate=   5.0kbits/s speed=0.0558x elapsed=0:00:18.22    \nframe=   63 fps=3.4 q=55.0 size=       1KiB time=00:00:01.05 bitrate=   4.8kbits/s speed=0.056x elapsed=0:00:18.74    \nframe=   64 fps=3.3 q=55.0 size=       1KiB time=00:00:01.06 bitrate=   4.7kbits/s speed=0.0554x elapsed=0:00:19.26    \nframe=   66 fps=3.3 q=57.0 size=       1KiB time=00:00:01.10 bitrate=   4.6kbits/s speed=0.0556x elapsed=0:00:19.78    \nframe=   68 fps=3.4 q=58.0 size=       1KiB time=00:00:01.13 bitrate=   4.5kbits/s speed=0.0559x elapsed=0:00:20.29    \nframe=   70 fps=3.4 q=60.0 size=       1KiB time=00:00:01.16 bitrate=   4.3kbits/s speed=0.0561x elapsed=0:00:20.80    \nframe=   72 fps=3.4 q=60.0 size=       1KiB time=00:00:01.20 bitrate=   4.2kbits/s speed=0.0563x elapsed=0:00:21.33    \nframe=   74 fps=3.4 q=60.0 size=       1KiB time=00:00:01.23 bitrate=   4.1kbits/s speed=0.0565x elapsed=0:00:21.84    \nframe=   75 fps=3.4 q=59.0 size=       1KiB time=00:00:01.25 bitrate=   4.1kbits/s speed=0.0559x elapsed=0:00:22.36    \nframe=   77 fps=3.4 q=60.0 size=       1KiB time=00:00:01.28 bitrate=   3.9kbits/s speed=0.0561x elapsed=0:00:22.86    \nframe=   79 fps=3.4 q=62.0 size=       1KiB time=00:00:01.31 bitrate=   3.8kbits/s speed=0.0563x elapsed=0:00:23.38    \nframe=   79 fps=3.3 q=62.0 size=       1KiB time=00:00:01.31 bitrate=   3.8kbits/s speed=0.0551x elapsed=0:00:23.91    \nframe=   81 fps=3.3 q=62.0 size=       1KiB time=00:00:01.35 bitrate=   3.8kbits/s speed=0.0553x elapsed=0:00:24.41    \nframe=   83 fps=3.3 q=62.0 size=       1KiB time=00:00:01.38 bitrate=   3.7kbits/s speed=0.0555x elapsed=0:00:24.93    \nframe=   84 fps=3.3 q=62.0 size=       1KiB time=00:00:01.40 bitrate=   3.6kbits/s speed=0.055x elapsed=0:00:25.45    \nframe=   85 fps=3.3 q=46.0 size=       1KiB time=00:00:01.41 bitrate=   3.6kbits/s speed=0.0546x elapsed=0:00:25.96    \nframe=   86 fps=3.2 q=61.0 size=       1KiB time=00:00:01.43 bitrate=   3.5kbits/s speed=0.0541x elapsed=0:00:26.48    \nframe=   88 fps=3.3 q=62.0 size=       1KiB time=00:00:01.46 bitrate=   3.5kbits/s speed=0.0543x elapsed=0:00:26.99    \nframe=   90 fps=3.3 q=62.0 size=       1KiB time=00:00:01.50 bitrate=   3.4kbits/s speed=0.0545x elapsed=0:00:27.51    \nframe=   93 fps=3.3 q=62.0 size=       1KiB time=00:00:01.55 bitrate=   3.3kbits/s speed=0.0553x elapsed=0:00:28.03    \nframe=   95 fps=3.3 q=62.0 size=       1KiB time=00:00:01.58 bitrate=   3.2kbits/s speed=0.0555x elapsed=0:00:28.54    \nframe=   96 fps=3.3 q=62.0 size=       1KiB time=00:00:01.60 bitrate=   3.2kbits/s speed=0.0551x elapsed=0:00:29.05    \nframe=   97 fps=3.3 q=47.0 size=       1KiB time=00:00:01.61 bitrate=   3.1kbits/s speed=0.0547x elapsed=0:00:29.57    \nframe=   99 fps=3.3 q=61.0 size=       1KiB time=00:00:01.65 bitrate=   3.1kbits/s speed=0.0548x elapsed=0:00:30.08    \nframe=  101 fps=3.3 q=61.0 size=       1KiB time=00:00:01.68 bitrate=   3.0kbits/s speed=0.055x elapsed=0:00:30.60    \nframe=  104 fps=3.3 q=62.0 size=       1KiB time=00:00:01.73 bitrate=   2.9kbits/s speed=0.0557x elapsed=0:00:31.12    \nframe=  106 fps=3.3 q=61.0 size=       1KiB time=00:00:01.76 bitrate=   2.9kbits/s speed=0.0558x elapsed=0:00:31.65    \nframe=  107 fps=3.3 q=61.0 size=       1KiB time=00:00:01.78 bitrate=   2.8kbits/s speed=0.0554x elapsed=0:00:32.17    \nframe=  109 fps=3.3 q=46.0 size=       1KiB time=00:00:01.81 bitrate=   2.8kbits/s speed=0.0556x elapsed=0:00:32.69    \nframe=  112 fps=3.4 q=61.0 size=       1KiB time=00:00:01.86 bitrate=   2.7kbits/s speed=0.0562x elapsed=0:00:33.24    \nframe=  115 fps=3.4 q=61.0 size=       1KiB time=00:00:01.91 bitrate=   2.6kbits/s speed=0.0567x elapsed=0:00:33.77    \nframe=  117 fps=3.4 q=61.0 size=       1KiB time=00:00:01.95 bitrate=   2.6kbits/s speed=0.0569x elapsed=0:00:34.29    \nframe=  119 fps=3.4 q=46.0 size=       1KiB time=00:00:01.98 bitrate=   2.6kbits/s speed=0.057x elapsed=0:00:34.81    \nframe=  121 fps=3.4 q=59.0 size=       1KiB time=00:00:02.00 bitrate=   2.5kbits/s speed=0.0566x elapsed=0:00:35.32    \nframe=  123 fps=3.4 q=60.0 size=       1KiB time=00:00:02.05 bitrate=   2.5kbits/s speed=0.0571x elapsed=0:00:35.88    \nframe=  125 fps=3.4 q=60.0 size=       1KiB time=00:00:02.08 bitrate=   2.4kbits/s speed=0.0572x elapsed=0:00:36.41    \nframe=  128 fps=3.5 q=60.0 size=       1KiB time=00:00:02.13 bitrate=   2.4kbits/s speed=0.0578x elapsed=0:00:36.91    \nframe=  130 fps=3.5 q=60.0 size=     234KiB time=00:00:02.16 bitrate= 884.1kbits/s speed=0.0579x elapsed=0:00:37.44    \nframe=  132 fps=3.5 q=59.0 size=     234KiB time=00:00:02.20 bitrate= 870.7kbits/s speed=0.058x elapsed=0:00:37.96    \nframe=  134 fps=3.5 q=59.0 size=     234KiB time=00:00:02.23 bitrate= 857.7kbits/s speed=0.058x elapsed=0:00:38.48    \nframe=  137 fps=3.5 q=59.0 size=     234KiB time=00:00:02.28 bitrate= 839.0kbits/s speed=0.0585x elapsed=0:00:39.00    \nframe=  139 fps=3.5 q=59.0 size=     234KiB time=00:00:02.31 bitrate= 826.9kbits/s speed=0.0586x elapsed=0:00:39.52    \nframe=  142 fps=3.5 q=59.0 size=     234KiB time=00:00:02.36 bitrate= 809.4kbits/s speed=0.0591x elapsed=0:00:40.05    \nframe=  143 fps=3.5 q=59.0 size=     234KiB time=00:00:02.38 bitrate= 803.8kbits/s speed=0.0588x elapsed=0:00:40.55    \nframe=  146 fps=3.6 q=59.0 size=     234KiB time=00:00:02.43 bitrate= 787.2kbits/s speed=0.0592x elapsed=0:00:41.09    \nframe=  149 fps=3.6 q=59.0 size=     234KiB time=00:00:02.48 bitrate= 771.4kbits/s speed=0.0597x elapsed=0:00:41.61    \nframe=  151 fps=3.6 q=59.0 size=     234KiB time=00:00:02.51 bitrate= 761.2kbits/s speed=0.0597x elapsed=0:00:42.12    \nframe=  153 fps=3.6 q=58.0 size=     234KiB time=00:00:02.55 bitrate= 751.2kbits/s speed=0.0598x elapsed=0:00:42.64    \nframe=  156 fps=3.6 q=57.0 size=     234KiB time=00:00:02.60 bitrate= 736.8kbits/s speed=0.0602x elapsed=0:00:43.20    \nframe=  158 fps=3.6 q=57.0 size=     234KiB time=00:00:02.63 bitrate= 727.5kbits/s speed=0.0602x elapsed=0:00:43.71    \nframe=  160 fps=3.6 q=58.0 size=     234KiB time=00:00:02.65 bitrate= 722.9kbits/s speed=0.0599x elapsed=0:00:44.22    \nframe=  162 fps=3.6 q=58.0 size=     234KiB time=00:00:02.70 bitrate= 709.5kbits/s speed=0.0603x elapsed=0:00:44.80    \nframe=  163 fps=3.6 q=59.0 size=     234KiB time=00:00:02.71 bitrate= 705.1kbits/s speed=0.0599x elapsed=0:00:45.32    \nframe=  166 fps=3.6 q=59.0 size=     234KiB time=00:00:02.76 bitrate= 692.4kbits/s speed=0.0604x elapsed=0:00:45.84    \nframe=  168 fps=3.6 q=59.0 size=     234KiB time=00:00:02.80 bitrate= 684.2kbits/s speed=0.0604x elapsed=0:00:46.38    \nframe=  170 fps=3.6 q=59.0 size=     234KiB time=00:00:02.83 bitrate= 676.1kbits/s speed=0.0604x elapsed=0:00:46.90    \nframe=  172 fps=3.6 q=60.0 size=     234KiB time=00:00:02.86 bitrate= 668.2kbits/s speed=0.0604x elapsed=0:00:47.44    \nframe=  174 fps=3.6 q=59.0 size=     234KiB time=00:00:02.90 bitrate= 660.6kbits/s speed=0.0605x elapsed=0:00:47.95    \nframe=  176 fps=3.6 q=44.0 size=     234KiB time=00:00:02.93 bitrate= 653.1kbits/s speed=0.0605x elapsed=0:00:48.48    \nframe=  179 fps=3.7 q=58.0 size=     234KiB time=00:00:02.98 bitrate= 642.1kbits/s speed=0.0609x elapsed=0:00:49.02    \nframe=  181 fps=3.7 q=59.0 size=     234KiB time=00:00:03.01 bitrate= 635.0kbits/s speed=0.0609x elapsed=0:00:49.54    \nframe=  185 fps=3.7 q=60.0 size=     234KiB time=00:00:03.08 bitrate= 621.3kbits/s speed=0.0616x elapsed=0:00:50.05    \nframe=  187 fps=3.7 q=60.0 size=     234KiB time=00:00:03.11 bitrate= 614.6kbits/s speed=0.0616x elapsed=0:00:50.57    \nframe=  188 fps=3.7 q=43.0 size=     234KiB time=00:00:03.13 bitrate= 611.4kbits/s speed=0.0613x elapsed=0:00:51.09    \nframe=  190 fps=3.7 q=60.0 size=     234KiB time=00:00:03.16 bitrate= 604.9kbits/s speed=0.0614x elapsed=0:00:51.60    \nframe=  192 fps=3.7 q=59.0 size=     234KiB time=00:00:03.20 bitrate= 598.6kbits/s speed=0.0614x elapsed=0:00:52.12    \nframe=  195 fps=3.7 q=60.0 size=     234KiB time=00:00:03.25 bitrate= 589.4kbits/s speed=0.0617x elapsed=0:00:52.64    \nframe=  197 fps=3.7 q=60.0 size=     234KiB time=00:00:03.28 bitrate= 583.4kbits/s speed=0.0618x elapsed=0:00:53.16    \nframe=  198 fps=3.7 q=60.0 size=     234KiB time=00:00:03.30 bitrate= 580.5kbits/s speed=0.0615x elapsed=0:00:53.68    \nframe=  199 fps=3.7 q=60.0 size=     234KiB time=00:00:03.31 bitrate= 577.6kbits/s speed=0.0612x elapsed=0:00:54.19    \nframe=  203 fps=3.7 q=60.0 size=     234KiB time=00:00:03.38 bitrate= 566.2kbits/s speed=0.0618x elapsed=0:00:54.71    \nframe=  206 fps=3.7 q=62.0 size=     234KiB time=00:00:03.43 bitrate= 558.0kbits/s speed=0.0621x elapsed=0:00:55.26    \nframe=  209 fps=3.7 q=63.0 size=     234KiB time=00:00:03.48 bitrate= 549.9kbits/s speed=0.0624x elapsed=0:00:55.78    \nframe=  211 fps=3.7 q=62.0 size=     234KiB time=00:00:03.51 bitrate= 544.7kbits/s speed=0.0624x elapsed=0:00:56.31    \nframe=  213 fps=3.7 q=62.0 size=     234KiB time=00:00:03.55 bitrate= 539.6kbits/s speed=0.0625x elapsed=0:00:56.83    \nframe=  215 fps=3.7 q=63.0 size=     234KiB time=00:00:03.58 bitrate= 534.6kbits/s speed=0.0625x elapsed=0:00:57.35    \nframe=  217 fps=3.7 q=63.0 size=     234KiB time=00:00:03.61 bitrate= 529.7kbits/s speed=0.0625x elapsed=0:00:57.87    \nframe=  218 fps=3.7 q=63.0 size=     234KiB time=00:00:03.63 bitrate= 527.2kbits/s speed=0.0622x elapsed=0:00:58.40    \nframe=  221 fps=3.7 q=63.0 size=     234KiB time=00:00:03.68 bitrate= 520.1kbits/s speed=0.0625x elapsed=0:00:58.95    \nframe=  222 fps=3.7 q=63.0 size=     234KiB time=00:00:03.70 bitrate= 517.7kbits/s speed=0.0622x elapsed=0:00:59.46    \nframe=  224 fps=3.7 q=50.0 size=     234KiB time=00:00:03.73 bitrate= 513.1kbits/s speed=0.0622x elapsed=0:00:59.97    \nframe=  226 fps=3.7 q=63.0 size=     234KiB time=00:00:03.76 bitrate= 508.6kbits/s speed=0.0623x elapsed=0:01:00.49    \nframe=  228 fps=3.7 q=63.0 size=     234KiB time=00:00:03.80 bitrate= 504.1kbits/s speed=0.0623x elapsed=0:01:01.01    \nframe=  230 fps=3.7 q=63.0 size=     234KiB time=00:00:03.83 bitrate= 499.7kbits/s speed=0.0623x elapsed=0:01:01.56    \nframe=  233 fps=3.8 q=63.0 size=     234KiB time=00:00:03.88 bitrate= 493.3kbits/s speed=0.0626x elapsed=0:01:02.08    \nframe=  235 fps=3.8 q=63.0 size=     234KiB time=00:00:03.91 bitrate= 489.1kbits/s speed=0.0626x elapsed=0:01:02.61    \nframe=  237 fps=3.8 q=63.0 size=     234KiB time=00:00:03.95 bitrate= 485.0kbits/s speed=0.0626x elapsed=0:01:03.12    \nframe=  240 fps=3.8 q=63.0 size=     234KiB time=00:00:04.00 bitrate= 478.9kbits/s speed=0.0628x elapsed=0:01:03.64    \nframe=  241 fps=3.8 q=63.0 size=     234KiB time=00:00:04.01 bitrate= 476.9kbits/s speed=0.0626x elapsed=0:01:04.18    \nframe=  244 fps=3.8 q=63.0 size=     234KiB time=00:00:04.06 bitrate= 471.1kbits/s speed=0.0628x elapsed=0:01:04.72    \nframe=  246 fps=3.8 q=63.0 size=     234KiB time=00:00:04.10 bitrate= 467.2kbits/s speed=0.0628x elapsed=0:01:05.24    \nframe=  248 fps=3.8 q=63.0 size=     234KiB time=00:00:04.13 bitrate= 463.5kbits/s speed=0.0628x elapsed=0:01:05.76    \nframe=  251 fps=3.8 q=63.0 size=     234KiB time=00:00:04.18 bitrate= 457.9kbits/s speed=0.0631x elapsed=0:01:06.28    \nframe=  253 fps=3.8 q=62.0 size=     234KiB time=00:00:04.21 bitrate= 454.3kbits/s speed=0.0631x elapsed=0:01:06.81    \nframe=  256 fps=3.8 q=62.0 size=     234KiB time=00:00:04.26 bitrate= 449.0kbits/s speed=0.0634x elapsed=0:01:07.34    \nframe=  258 fps=3.8 q=60.0 size=     256KiB time=00:00:04.30 bitrate= 487.7kbits/s speed=0.0634x elapsed=0:01:07.87    \nframe=  261 fps=3.8 q=60.0 size=     256KiB time=00:00:04.35 bitrate= 482.1kbits/s speed=0.0636x elapsed=0:01:08.39    \nframe=  264 fps=3.8 q=60.0 size=     256KiB time=00:00:04.40 bitrate= 476.6kbits/s speed=0.0638x elapsed=0:01:08.92    \nframe=  265 fps=3.8 q=60.0 size=     256KiB time=00:00:04.41 bitrate= 474.8kbits/s speed=0.0636x elapsed=0:01:09.44    \nframe=  268 fps=3.8 q=60.0 size=     256KiB time=00:00:04.46 bitrate= 469.5kbits/s speed=0.0638x elapsed=0:01:09.96    \nframe=  270 fps=3.8 q=62.0 size=     256KiB time=00:00:04.50 bitrate= 466.0kbits/s speed=0.0638x elapsed=0:01:10.49    \nframe=  274 fps=3.9 q=60.0 size=     256KiB time=00:00:04.56 bitrate= 459.2kbits/s speed=0.0643x elapsed=0:01:11.05    \nframe=  276 fps=3.9 q=60.0 size=     256KiB time=00:00:04.60 bitrate= 455.9kbits/s speed=0.0643x elapsed=0:01:11.59    \nframe=  276 fps=3.8 q=60.0 size=     256KiB time=00:00:04.60 bitrate= 455.9kbits/s speed=0.0638x elapsed=0:01:12.11    \nframe=  276 fps=3.8 q=60.0 size=     256KiB time=00:00:04.60 bitrate= 455.9kbits/s speed=0.0633x elapsed=0:01:12.64    \nframe=  276 fps=3.8 q=60.0 size=     256KiB time=00:00:04.60 bitrate= 455.9kbits/s speed=0.0629x elapsed=0:01:13.15    \nframe=  276 fps=3.7 q=60.0 size=     256KiB time=00:00:04.60 bitrate= 455.9kbits/s speed=0.0624x elapsed=0:01:13.69    \nframe=  276 fps=3.7 q=60.0 size=     256KiB time=00:00:04.60 bitrate= 455.9kbits/s speed=0.062x elapsed=0:01:14.24    \nframe=  276 fps=3.7 q=60.0 size=     256KiB time=00:00:04.60 bitrate= 455.9kbits/s speed=0.0615x elapsed=0:01:14.76    \n[out#0/webm @ 000002857f959880] video:594KiB audio:0KiB subtitle:0KiB other streams:0KiB global headers:0KiB muxing overhead: 0.464590%\nframe=  300 fps=4.0 q=57.0 Lsize=     597KiB time=00:00:05.00 bitrate= 977.8kbits/s speed=0.0667x elapsed=0:01:14.93    \n",
  "seconds": 75.84312772750854,
  "probe_out": {}
}